<svg width="192" height="40" viewBox="0 0 192 40" fill="none" xmlns="http://www.w3.org/2000/svg">
<g clip-path="url(#clip0_265_1492)">
<path fill-rule="evenodd" clip-rule="evenodd" d="M127.383 9.11547C127.291 8.8965 127.17 8.61815 127.018 8.28042C126.867 7.94228 126.704 7.57733 126.53 7.18475C126.356 6.79217 126.17 6.38846 125.973 5.97279C125.775 5.55753 125.589 5.16496 125.415 4.79547C125.241 4.42558 125.078 4.09485 124.927 3.80248C124.775 3.51011 124.654 3.28702 124.562 3.13156C124.461 4.20867 124.379 5.37485 124.315 6.63052C124.251 7.88537 124.196 9.15217 124.15 10.4301H122.843C122.879 9.60826 122.921 8.78022 122.966 7.94475C123.012 7.10929 123.065 6.28784 123.125 5.48001C123.184 4.67217 123.249 3.88496 123.317 3.11795C123.386 2.35135 123.462 1.62516 123.544 0.94104H124.714C124.961 1.34269 125.228 1.81733 125.512 2.36455C125.796 2.91259 126.08 3.48537 126.365 4.08331C126.648 4.68125 126.924 5.27918 127.19 5.87712C127.456 6.47506 127.699 7.02063 127.919 7.51341C128.139 7.02063 128.382 6.47506 128.649 5.87712C128.914 5.27918 129.189 4.68125 129.474 4.08331C129.759 3.48537 130.042 2.91259 130.327 2.36455C130.611 1.81733 130.877 1.34269 131.125 0.94104H132.295C132.606 3.99877 132.84 7.16207 132.995 10.4301H131.689C131.643 9.15217 131.588 7.88537 131.524 6.63052C131.459 5.37485 131.377 4.20867 131.276 3.13156C131.184 3.28702 131.063 3.51011 130.911 3.80248C130.761 4.09485 130.597 4.42558 130.423 4.79547C130.249 5.16496 130.064 5.55753 129.866 5.97279C129.668 6.38846 129.483 6.79217 129.309 7.18475C129.135 7.57733 128.972 7.94228 128.82 8.28042C128.669 8.61815 128.548 8.8965 128.456 9.11547H127.383Z" fill="#4DBAFF"/>
<path fill-rule="evenodd" clip-rule="evenodd" d="M139.984 6.86974C139.984 6.06685 139.803 5.43015 139.441 4.95963C139.078 4.48953 138.585 4.25448 137.962 4.25448C137.338 4.25448 136.845 4.48953 136.483 4.95963C136.12 5.43015 135.939 6.06685 135.939 6.86974C135.939 7.67345 136.12 8.31015 136.483 8.78025C136.845 9.24994 137.338 9.48541 137.962 9.48541C138.585 9.48541 139.078 9.24994 139.441 8.78025C139.803 8.31015 139.984 7.67345 139.984 6.86974ZM141.319 6.86974C141.319 7.43592 141.236 7.94726 141.072 8.40334C140.906 8.86025 140.674 9.25242 140.376 9.58108C140.078 9.90974 139.723 10.1629 139.31 10.3411C138.897 10.5188 138.448 10.6083 137.962 10.6083C137.476 10.6083 137.027 10.5188 136.614 10.3411C136.201 10.1629 135.845 9.90974 135.547 9.58108C135.25 9.25242 135.018 8.86025 134.853 8.40334C134.687 7.94726 134.605 7.43592 134.605 6.86974C134.605 6.31304 134.687 5.80417 134.853 5.34314C135.018 4.88211 135.25 4.48747 135.547 4.1584C135.845 3.83015 136.201 3.57654 136.614 3.39881C137.027 3.22066 137.476 3.13159 137.962 3.13159C138.448 3.13159 138.897 3.22066 139.31 3.39881C139.723 3.57654 140.078 3.83015 140.376 4.1584C140.674 4.48747 140.906 4.88211 141.072 5.34314C141.236 5.80417 141.319 6.31304 141.319 6.86974Z" fill="#4DBAFF"/>
<path fill-rule="evenodd" clip-rule="evenodd" d="M143.122 3.51506C143.415 3.44165 143.804 3.36454 144.29 3.28207C144.776 3.2 145.336 3.15918 145.969 3.15918C146.538 3.15918 147.01 3.23918 147.386 3.39877C147.762 3.55835 148.062 3.78227 148.287 4.0697C148.512 4.35712 148.67 4.70186 148.762 5.10351C148.854 5.50516 148.9 5.94805 148.9 6.43176V10.4301H147.62V6.70557C147.62 6.26722 147.59 5.89279 147.531 5.58268C147.471 5.27217 147.373 5.02145 147.235 4.8297C147.097 4.63794 146.914 4.49856 146.684 4.41155C146.455 4.32537 146.171 4.28207 145.832 4.28207C145.694 4.28207 145.552 4.2866 145.405 4.29526C145.259 4.30475 145.119 4.31629 144.985 4.32949C144.852 4.3431 144.733 4.35918 144.628 4.37732C144.522 4.39588 144.447 4.4099 144.401 4.41856V10.4301H143.122V3.51506Z" fill="#4DBAFF"/>
<path fill-rule="evenodd" clip-rule="evenodd" d="M152.215 3.30968H154.925V4.37731H152.215V7.66391C152.215 8.01979 152.242 8.31422 152.298 8.54721C152.352 8.7802 152.435 8.96247 152.545 9.09484C152.655 9.22721 152.792 9.32082 152.958 9.37566C153.123 9.4301 153.315 9.45773 153.535 9.45773C153.921 9.45773 154.23 9.41443 154.464 9.32742C154.698 9.24082 154.861 9.17937 154.952 9.14267L155.201 10.1971C155.072 10.261 154.847 10.341 154.526 10.4367C154.205 10.5328 153.838 10.5806 153.426 10.5806C152.94 10.5806 152.538 10.5188 152.222 10.3959C151.905 10.2726 151.651 10.0878 151.458 9.84123C151.266 9.59463 151.131 9.29113 151.052 8.93072C150.974 8.56989 150.935 8.15257 150.935 7.67752V1.32412L152.215 1.10474V3.30968Z" fill="#4DBAFF"/>
<path fill-rule="evenodd" clip-rule="evenodd" d="M161.06 6.1852C161.07 5.61035 160.925 5.13778 160.628 4.76829C160.33 4.3984 159.92 4.21365 159.396 4.21365C159.103 4.21365 158.844 4.27056 158.62 4.38438C158.394 4.4986 158.204 4.64706 158.048 4.82974C157.893 5.01242 157.771 5.2219 157.684 5.45943C157.596 5.69695 157.539 5.9386 157.511 6.1852H161.06ZM156.15 6.88376C156.15 6.25365 156.241 5.70396 156.425 5.23345C156.608 4.76334 156.851 4.37324 157.154 4.06314C157.457 3.75262 157.805 3.51963 158.2 3.36458C158.593 3.20953 158.997 3.13159 159.411 3.13159C160.373 3.13159 161.111 3.43097 161.625 4.02891C162.139 4.62644 162.396 5.53695 162.396 6.76005C162.396 6.8153 162.396 6.88582 162.396 6.97242C162.396 7.05943 162.391 7.13943 162.382 7.212H157.484C157.539 7.95139 157.755 8.51304 158.131 8.89654C158.507 9.27963 159.094 9.47139 159.892 9.47139C160.341 9.47139 160.719 9.43262 161.026 9.3551C161.334 9.27757 161.566 9.20252 161.721 9.12912L161.9 10.1972C161.744 10.2792 161.472 10.3662 161.082 10.4578C160.692 10.5485 160.249 10.5947 159.754 10.5947C159.13 10.5947 158.591 10.5011 158.137 10.3134C157.684 10.1266 157.31 9.86891 157.017 9.53984C156.723 9.21118 156.505 8.82108 156.363 8.36912C156.221 7.91716 156.15 7.42231 156.15 6.88376Z" fill="#4DBAFF"/>
<path fill-rule="evenodd" clip-rule="evenodd" d="M165.904 9.51262C166.427 9.51262 166.814 9.44417 167.066 9.30726C167.318 9.17035 167.445 8.95139 167.445 8.64994C167.445 8.33943 167.321 8.09324 167.073 7.91056C166.826 7.72788 166.417 7.52293 165.848 7.29448C165.574 7.18479 165.309 7.07345 165.057 6.95881C164.805 6.84458 164.588 6.71015 164.405 6.5551C164.22 6.40005 164.074 6.21283 163.963 5.99345C163.854 5.77448 163.799 5.5052 163.799 5.1852C163.799 4.55592 164.033 4.05613 164.5 3.68623C164.968 3.31633 165.606 3.13159 166.412 3.13159C166.614 3.13159 166.816 3.14314 167.018 3.16582C167.22 3.18891 167.408 3.21613 167.583 3.24829C167.757 3.28046 167.91 3.31468 168.043 3.35056C168.176 3.38726 168.279 3.41901 168.353 3.44664L168.119 4.5419C167.982 4.46932 167.766 4.39345 167.472 4.31633C167.179 4.23881 166.826 4.19963 166.412 4.19963C166.055 4.19963 165.743 4.27056 165.477 4.41159C165.211 4.55345 165.079 4.77489 165.079 5.07592C165.079 5.23139 165.108 5.36829 165.168 5.48664C165.227 5.60541 165.319 5.71304 165.443 5.80871C165.567 5.90438 165.721 5.99345 165.904 6.07592C166.087 6.15757 166.308 6.24458 166.565 6.33572C166.903 6.46355 167.206 6.58891 167.472 6.71221C167.738 6.83551 167.965 6.97901 168.153 7.14355C168.341 7.30809 168.485 7.50644 168.587 7.73943C168.687 7.97242 168.738 8.25737 168.738 8.5951C168.738 9.25242 168.492 9.75015 168.002 10.0879C167.511 10.4256 166.811 10.5947 165.904 10.5947C165.271 10.5947 164.776 10.5419 164.418 10.4367C164.06 10.332 163.817 10.252 163.688 10.1972L163.922 9.1019C164.07 9.15633 164.304 9.23881 164.624 9.3485C164.945 9.45778 165.372 9.51262 165.904 9.51262Z" fill="#4DBAFF"/>
<path fill-rule="evenodd" clip-rule="evenodd" d="M172.039 9.51262C172.563 9.51262 172.95 9.44417 173.202 9.30726C173.455 9.17035 173.581 8.95139 173.581 8.64994C173.581 8.33943 173.456 8.09324 173.209 7.91056C172.961 7.72788 172.553 7.52293 171.984 7.29448C171.709 7.18479 171.445 7.07345 171.193 6.95881C170.941 6.84458 170.724 6.71015 170.54 6.5551C170.356 6.40005 170.21 6.21283 170.099 5.99345C169.989 5.77448 169.935 5.5052 169.935 5.1852C169.935 4.55592 170.169 4.05613 170.636 3.68623C171.104 3.31633 171.742 3.13159 172.548 3.13159C172.75 3.13159 172.952 3.14314 173.154 3.16582C173.355 3.18891 173.543 3.21613 173.718 3.24829C173.892 3.28046 174.046 3.31468 174.179 3.35056C174.312 3.38726 174.415 3.41901 174.489 3.44664L174.255 4.5419C174.117 4.46932 173.902 4.39345 173.608 4.31633C173.315 4.23881 172.961 4.19963 172.548 4.19963C172.191 4.19963 171.879 4.27056 171.613 4.41159C171.347 4.55345 171.214 4.77489 171.214 5.07592C171.214 5.23139 171.244 5.36829 171.304 5.48664C171.363 5.60541 171.455 5.71304 171.579 5.80871C171.703 5.90438 171.856 5.99345 172.039 6.07592C172.223 6.15757 172.443 6.24458 172.7 6.33572C173.039 6.46355 173.342 6.58891 173.608 6.71221C173.874 6.83551 174.101 6.97901 174.289 7.14355C174.477 7.30809 174.622 7.50644 174.723 7.73943C174.823 7.97242 174.874 8.25737 174.874 8.5951C174.874 9.25242 174.628 9.75015 174.138 10.0879C173.647 10.4256 172.947 10.5947 172.039 10.5947C171.407 10.5947 170.912 10.5419 170.554 10.4367C170.196 10.332 169.953 10.252 169.824 10.1972L170.058 9.1019C170.206 9.15633 170.439 9.23881 170.76 9.3485C171.081 9.45778 171.508 9.51262 172.039 9.51262Z" fill="#4DBAFF"/>
<path fill-rule="evenodd" clip-rule="evenodd" d="M181.491 6.86974C181.491 6.06685 181.31 5.43015 180.948 4.95963C180.585 4.48953 180.092 4.25448 179.468 4.25448C178.845 4.25448 178.352 4.48953 177.99 4.95963C177.627 5.43015 177.446 6.06685 177.446 6.86974C177.446 7.67345 177.627 8.31015 177.99 8.78025C178.352 9.24994 178.845 9.48541 179.468 9.48541C180.092 9.48541 180.585 9.24994 180.948 8.78025C181.31 8.31015 181.491 7.67345 181.491 6.86974ZM182.826 6.86974C182.826 7.43592 182.742 7.94726 182.578 8.40334C182.413 8.86025 182.181 9.25242 181.883 9.58108C181.585 9.90974 181.23 10.1629 180.817 10.3411C180.404 10.5188 179.954 10.6083 179.468 10.6083C178.982 10.6083 178.533 10.5188 178.12 10.3411C177.708 10.1629 177.352 9.90974 177.054 9.58108C176.756 9.25242 176.525 8.86025 176.359 8.40334C176.195 7.94726 176.112 7.43592 176.112 6.86974C176.112 6.31304 176.195 5.80417 176.359 5.34314C176.525 4.88211 176.756 4.48747 177.054 4.1584C177.352 3.83015 177.708 3.57654 178.12 3.39881C178.533 3.22066 178.982 3.13159 179.468 3.13159C179.954 3.13159 180.404 3.22066 180.817 3.39881C181.23 3.57654 181.585 3.83015 181.883 4.1584C182.181 4.48747 182.413 4.88211 182.578 5.34314C182.742 5.80417 182.826 6.31304 182.826 6.86974Z" fill="#4DBAFF"/>
<path fill-rule="evenodd" clip-rule="evenodd" d="M187.269 3.15918C187.379 3.15918 187.505 3.16578 187.647 3.1798C187.789 3.19341 187.93 3.21196 188.067 3.23423C188.204 3.25691 188.33 3.28042 188.445 3.30268C188.559 3.32537 188.645 3.3464 188.699 3.36454L188.479 4.47341C188.378 4.43712 188.211 4.39341 187.977 4.3431C187.744 4.2932 187.442 4.26805 187.076 4.26805C186.837 4.26805 186.602 4.2932 186.368 4.3431C186.134 4.39341 185.98 4.42763 185.907 4.44578V10.4301H184.627V3.61114C184.93 3.50104 185.306 3.39877 185.755 3.30268C186.205 3.20701 186.709 3.15918 187.269 3.15918Z" fill="#4DBAFF"/>
<path fill-rule="evenodd" clip-rule="evenodd" d="M189.938 10.4302H191.217V3.30974H189.938V10.4302ZM190.57 2.02232C190.341 2.02232 190.145 1.94686 189.986 1.79676C189.824 1.64624 189.745 1.44294 189.745 1.18727C189.745 0.932013 189.824 0.728714 189.986 0.578198C190.145 0.427271 190.341 0.351807 190.57 0.351807C190.799 0.351807 190.994 0.427271 191.155 0.578198C191.315 0.728714 191.396 0.932013 191.396 1.18727C191.396 1.44294 191.315 1.64624 191.155 1.79676C190.994 1.94686 190.799 2.02232 190.57 2.02232Z" fill="#4DBAFF"/>
<path fill-rule="evenodd" clip-rule="evenodd" d="M128.841 22.3683V23.5189H123.104V14.0298H124.439V22.3683H128.841Z" fill="#4DBAFF"/>
<path fill-rule="evenodd" clip-rule="evenodd" d="M128.814 24.8465C128.914 24.8923 129.046 24.9352 129.206 24.9772C129.366 25.0181 129.524 25.0383 129.68 25.0383C130.185 25.0383 130.579 24.9269 130.864 24.7034C131.147 24.4791 131.404 24.1166 131.634 23.6148C131.056 22.5191 130.517 21.3579 130.018 20.1298C129.518 18.9022 129.102 17.6581 128.773 16.3987H130.148C130.249 16.809 130.371 17.2519 130.513 17.7265C130.655 18.2016 130.814 18.6898 130.988 19.1917C131.162 19.6939 131.35 20.1962 131.552 20.6981C131.753 21.2003 131.964 21.684 132.185 22.1496C132.533 21.1908 132.836 20.242 133.093 19.3014C133.349 18.3612 133.592 17.3937 133.821 16.3987H135.142C134.813 17.7405 134.445 19.0296 134.042 20.2667C133.638 21.5038 133.202 22.6605 132.735 23.7372C132.551 24.1488 132.361 24.5022 132.164 24.7983C131.967 25.0952 131.748 25.3397 131.51 25.5319C131.272 25.7228 131.003 25.8642 130.705 25.9558C130.407 26.0469 130.071 26.0923 129.694 26.0923C129.593 26.0923 129.488 26.0861 129.378 26.0721C129.268 26.0585 129.16 26.0407 129.054 26.0176C128.949 25.995 128.853 25.9698 128.766 25.9422C128.678 25.9146 128.616 25.8919 128.58 25.8737L128.814 24.8465Z" fill="#4DBAFF"/>
<path fill-rule="evenodd" clip-rule="evenodd" d="M139.599 23.6834C139.022 23.6834 138.514 23.5923 138.079 23.4087C137.643 23.2265 137.276 22.9708 136.979 22.6426C136.68 22.3139 136.458 21.9238 136.311 21.4718C136.165 21.0199 136.091 20.5201 136.091 19.9725C136.091 19.4248 136.171 18.923 136.331 18.4661C136.492 18.01 136.719 17.6149 137.013 17.2817C137.306 16.9485 137.666 16.6883 138.093 16.5015C138.519 16.3143 138.994 16.2207 139.516 16.2207C139.837 16.2207 140.159 16.2483 140.48 16.3028C140.801 16.3576 141.108 16.4442 141.401 16.5626L141.113 17.6446C140.92 17.5535 140.697 17.4801 140.445 17.4257C140.193 17.3708 139.925 17.3436 139.64 17.3436C138.925 17.3436 138.376 17.5671 137.996 18.0145C137.616 18.4615 137.425 19.1143 137.425 19.9725C137.425 20.356 137.469 20.7073 137.556 21.0265C137.643 21.3461 137.781 21.6203 137.969 21.8483C138.157 22.0764 138.397 22.2529 138.691 22.3749C138.984 22.4986 139.343 22.5601 139.764 22.5601C140.103 22.5601 140.411 22.5287 140.686 22.464C140.961 22.4005 141.176 22.332 141.332 22.2586L141.512 23.3271C141.438 23.3725 141.332 23.4158 141.195 23.4566C141.057 23.4986 140.902 23.5345 140.727 23.5667C140.553 23.5984 140.367 23.6261 140.17 23.6487C139.973 23.6714 139.783 23.6834 139.599 23.6834Z" fill="#4DBAFF"/>
<path fill-rule="evenodd" clip-rule="evenodd" d="M147.399 19.2739C147.409 18.6991 147.264 18.2269 146.966 17.857C146.669 17.4871 146.258 17.3024 145.735 17.3024C145.442 17.3024 145.182 17.3597 144.958 17.4735C144.733 17.5877 144.542 17.7358 144.387 17.9184C144.231 18.1011 144.109 18.311 144.022 18.5485C143.935 18.7861 143.878 19.0273 143.85 19.2739H147.399ZM142.489 19.9725C142.489 19.3424 142.58 18.7927 142.763 18.3221C142.947 17.8525 143.19 17.4619 143.493 17.1518C143.796 16.8413 144.143 16.6087 144.539 16.4533C144.932 16.2986 145.336 16.2207 145.749 16.2207C146.712 16.2207 147.45 16.5197 147.964 17.1176C148.477 17.7155 148.734 18.6261 148.734 19.8492C148.734 19.904 148.734 19.9749 148.734 20.0615C148.734 20.1485 148.73 20.2281 148.721 20.3011H143.823C143.878 21.0405 144.094 21.6017 144.47 21.9848C144.845 22.3683 145.433 22.5601 146.231 22.5601C146.68 22.5601 147.058 22.5217 147.365 22.4434C147.673 22.3667 147.904 22.2908 148.06 22.2182L148.239 23.2859C148.083 23.3679 147.81 23.4553 147.421 23.5465C147.03 23.6368 146.588 23.6834 146.093 23.6834C145.469 23.6834 144.931 23.5898 144.476 23.4026C144.022 23.2153 143.649 22.9576 143.355 22.6285C143.062 22.2999 142.844 21.9102 142.702 21.4582C142.56 21.0063 142.489 20.511 142.489 19.9725Z" fill="#4DBAFF"/>
<path fill-rule="evenodd" clip-rule="evenodd" d="M156.274 23.3137C155.98 23.3867 155.593 23.4638 155.111 23.5463C154.629 23.628 154.072 23.6688 153.44 23.6688C152.889 23.6688 152.426 23.5896 152.049 23.43C151.674 23.27 151.371 23.044 151.142 22.7517C150.913 22.4597 150.747 22.115 150.647 21.7183C150.546 21.3212 150.495 20.8803 150.495 20.397V16.3987H151.775V20.1228C151.775 20.9904 151.912 21.6111 152.187 21.9847C152.463 22.3591 152.926 22.5463 153.577 22.5463C153.715 22.5463 153.857 22.5418 154.003 22.5323C154.15 22.5236 154.288 22.5117 154.416 22.4985C154.545 22.4845 154.662 22.4713 154.767 22.4577C154.873 22.4432 154.948 22.4275 154.994 22.4094V16.3987H156.274V23.3137Z" fill="#4DBAFF"/>
<path fill-rule="evenodd" clip-rule="evenodd" d="M158.475 16.6038C158.768 16.5308 159.155 16.4532 159.638 16.3712C160.119 16.2891 160.676 16.2483 161.309 16.2483C161.768 16.2483 162.152 16.3093 162.464 16.433C162.776 16.5559 163.037 16.7365 163.248 16.9737C163.312 16.9279 163.413 16.864 163.551 16.7819C163.688 16.6998 163.858 16.6198 164.06 16.5423C164.261 16.4648 164.487 16.3963 164.734 16.337C164.982 16.2776 165.248 16.2483 165.532 16.2483C166.082 16.2483 166.532 16.3279 166.88 16.4875C167.229 16.6471 167.502 16.8734 167.699 17.1654C167.896 17.4574 168.029 17.8042 168.098 18.2058C168.167 18.6079 168.201 19.0458 168.201 19.5209V23.5188H166.922V19.7943C166.922 19.3749 166.901 19.0141 166.86 18.713C166.819 18.4116 166.741 18.1605 166.626 17.9596C166.512 17.7588 166.355 17.6104 166.158 17.5143C165.961 17.4186 165.706 17.3708 165.395 17.3708C164.963 17.3708 164.609 17.4281 164.328 17.5419C164.049 17.6561 163.858 17.7588 163.757 17.8499C163.831 18.0875 163.886 18.3477 163.922 18.6306C163.959 18.9134 163.978 19.2104 163.978 19.5209V23.5188H162.699V19.7943C162.699 19.3749 162.675 19.0141 162.63 18.713C162.583 18.4116 162.503 18.1605 162.389 17.9596C162.274 17.7588 162.118 17.6104 161.921 17.5143C161.724 17.4186 161.474 17.3708 161.171 17.3708C161.043 17.3708 160.905 17.3757 160.758 17.3844C160.612 17.3939 160.472 17.405 160.338 17.4186C160.206 17.4322 160.084 17.4483 159.974 17.4664C159.864 17.485 159.791 17.4986 159.754 17.5077V23.5188H158.475V16.6038Z" fill="#4DBAFF"/>
<path fill-rule="evenodd" clip-rule="evenodd" d="M126.653 38.4239C126.03 38.4239 125.488 38.3278 125.03 38.1361C124.571 37.9448 124.196 37.6825 123.902 37.3489C123.608 37.0157 123.391 36.621 123.249 36.165C123.106 35.7076 123.035 35.2153 123.035 34.6854V28.7295H124.37V34.5353C124.37 35.4841 124.581 36.1732 125.002 36.6029C125.425 37.0313 125.974 37.2466 126.653 37.2466C126.993 37.2466 127.302 37.1938 127.582 37.0891C127.862 36.9835 128.103 36.8219 128.304 36.6029C128.506 36.3835 128.662 36.1027 128.772 35.7604C128.882 35.4182 128.937 35.0103 128.937 34.5353V28.7295H130.272V34.6854C130.272 35.2153 130.201 35.7076 130.059 36.165C129.917 36.621 129.696 37.0157 129.398 37.3489C129.1 37.6825 128.724 37.9448 128.27 38.1361C127.816 38.3278 127.277 38.4239 126.653 38.4239Z" fill="#4DBAFF"/>
<path fill-rule="evenodd" clip-rule="evenodd" d="M133.683 31.0985H136.394V32.1661H133.683V35.4519C133.683 35.8086 133.711 36.1026 133.766 36.3356C133.82 36.5682 133.904 36.7509 134.013 36.8828C134.123 37.0156 134.261 37.1096 134.426 37.1641C134.591 37.2185 134.784 37.2465 135.004 37.2465C135.39 37.2465 135.698 37.2028 135.932 37.1154C136.167 37.0292 136.329 36.9678 136.421 36.9307L136.669 37.9859C136.54 38.0494 136.316 38.1294 135.995 38.2251C135.673 38.3208 135.306 38.369 134.894 38.369C134.408 38.369 134.006 38.3076 133.69 38.1839C133.373 38.061 133.119 37.8762 132.927 37.6296C132.734 37.3835 132.599 37.0799 132.521 36.7195C132.442 36.3583 132.403 35.9406 132.403 35.4659V29.1121L133.683 28.8936V31.0985Z" fill="#4DBAFF"/>
<path fill-rule="evenodd" clip-rule="evenodd" d="M140.658 30.9475C140.768 30.9475 140.895 30.9545 141.037 30.9677C141.178 30.9822 141.319 30.9999 141.457 31.0226C141.594 31.0457 141.72 31.0683 141.834 31.091C141.949 31.1141 142.034 31.1347 142.088 31.1529L141.869 32.2617C141.768 32.2254 141.6 32.1826 141.366 32.1323C141.133 32.0815 140.832 32.0564 140.465 32.0564C140.227 32.0564 139.991 32.0815 139.757 32.1323C139.523 32.1826 139.369 32.2164 139.297 32.2345V38.2184H138.017V31.3995C138.32 31.2898 138.695 31.1875 139.145 31.091C139.595 30.9953 140.099 30.9475 140.658 30.9475Z" fill="#4DBAFF"/>
<path fill-rule="evenodd" clip-rule="evenodd" d="M147.606 33.9731C147.615 33.3983 147.471 32.9261 147.173 32.5566C146.875 32.1867 146.465 32.002 145.942 32.002C145.648 32.002 145.389 32.0589 145.165 32.1727C144.939 32.2869 144.749 32.4358 144.593 32.6181C144.438 32.8007 144.316 33.0102 144.229 33.2482C144.141 33.4857 144.084 33.7273 144.056 33.9731H147.606ZM142.695 34.6721C142.695 34.0416 142.787 33.4919 142.97 33.0218C143.153 32.5521 143.397 32.162 143.699 31.8511C144.002 31.5414 144.35 31.3084 144.745 31.1529C145.139 30.9979 145.542 30.9199 145.956 30.9199C146.918 30.9199 147.656 31.2197 148.17 31.8172C148.683 32.4152 148.941 33.3253 148.941 34.5484C148.941 34.6036 148.941 34.6746 148.941 34.7607C148.941 34.8478 148.936 34.9273 148.927 35.0007H144.029C144.084 35.7401 144.3 36.3018 144.676 36.6849C145.052 37.0675 145.639 37.2597 146.437 37.2597C146.886 37.2597 147.264 37.221 147.572 37.1434C147.879 37.0659 148.111 36.9908 148.267 36.9174L148.445 37.9859C148.289 38.0675 148.017 38.155 147.627 38.2461C147.237 38.3364 146.794 38.383 146.299 38.383C145.675 38.383 145.137 38.2894 144.682 38.1022C144.229 37.915 143.855 37.6568 143.562 37.3282C143.268 36.9991 143.05 36.6094 142.908 36.1574C142.766 35.7055 142.695 35.2106 142.695 34.6721Z" fill="#4DBAFF"/>
<path fill-rule="evenodd" clip-rule="evenodd" d="M153.894 38.383C153.316 38.383 152.808 38.2919 152.373 38.1084C151.938 37.9257 151.571 37.6704 151.273 37.3422C150.974 37.0135 150.752 36.6234 150.605 36.1711C150.459 35.7195 150.385 35.2193 150.385 34.6721C150.385 34.1245 150.465 33.6226 150.626 33.1653C150.786 32.7092 151.014 32.3146 151.307 31.981C151.6 31.6482 151.961 31.388 152.387 31.2007C152.813 31.0135 153.288 30.9199 153.81 30.9199C154.131 30.9199 154.453 30.9475 154.774 31.0024C155.095 31.0564 155.402 31.1438 155.695 31.2618L155.407 32.3442C155.214 32.2527 154.991 32.1801 154.739 32.1249C154.487 32.0704 154.219 32.0432 153.935 32.0432C153.219 32.0432 152.671 32.2667 152.291 32.7141C151.91 33.1607 151.72 33.8139 151.72 34.6721C151.72 35.0556 151.763 35.4065 151.851 35.7257C151.938 36.0461 152.075 36.3199 152.263 36.548C152.451 36.776 152.691 36.9521 152.985 37.075C153.279 37.1987 153.637 37.2597 154.059 37.2597C154.397 37.2597 154.705 37.2284 154.98 37.164C155.255 37.0997 155.471 37.0313 155.627 36.9587L155.806 38.0263C155.733 38.0725 155.627 38.1154 155.489 38.1566C155.352 38.1979 155.196 38.2341 155.021 38.2663C154.847 38.2981 154.662 38.3257 154.464 38.3484C154.267 38.3711 154.077 38.383 153.894 38.383Z" fill="#4DBAFF"/>
<path fill-rule="evenodd" clip-rule="evenodd" d="M157.181 38.2185V27.8119L158.46 27.5925V31.2354C158.698 31.1439 158.953 31.0729 159.224 31.0226C159.494 30.9723 159.762 30.9476 160.028 30.9476C160.597 30.9476 161.069 31.0276 161.446 31.1876C161.821 31.3468 162.122 31.5703 162.346 31.8585C162.572 32.1455 162.73 32.4898 162.821 32.8915C162.913 33.294 162.959 33.7364 162.959 34.2206V38.2185H161.68V34.494C161.68 34.056 161.649 33.6816 161.59 33.3707C161.53 33.0606 161.432 32.8098 161.295 32.6181C161.157 32.4259 160.973 32.287 160.744 32.2008C160.515 32.1142 160.23 32.0705 159.891 32.0705C159.754 32.0705 159.611 32.0795 159.464 32.0977C159.318 32.1162 159.178 32.1364 159.045 32.1595C158.912 32.1826 158.793 32.2074 158.687 32.2346C158.581 32.2618 158.506 32.2849 158.46 32.3026V38.2185H157.181Z" fill="#4DBAFF"/>
<path fill-rule="evenodd" clip-rule="evenodd" d="M166.233 31.0985H168.944V32.1661H166.233V35.4519C166.233 35.8086 166.261 36.1026 166.316 36.3356C166.371 36.5682 166.454 36.7509 166.564 36.8828C166.673 37.0156 166.811 37.1096 166.976 37.1641C167.141 37.2185 167.334 37.2465 167.553 37.2465C167.94 37.2465 168.248 37.2028 168.483 37.1154C168.716 37.0292 168.879 36.9678 168.971 36.9307L169.219 37.9859C169.09 38.0494 168.866 38.1294 168.545 38.2251C168.223 38.3208 167.857 38.369 167.444 38.369C166.958 38.369 166.556 38.3076 166.24 38.1839C165.924 38.061 165.669 37.8762 165.477 37.6296C165.284 37.3835 165.149 37.0799 165.07 36.7195C164.993 36.3583 164.954 35.9406 164.954 35.4659V29.1121L166.233 28.8936V31.0985Z" fill="#4DBAFF"/>
<path fill-rule="evenodd" clip-rule="evenodd" d="M2.31163 39.3204L0.803929 38.0776L0.911237 34.8475L1.02683 31.6178L1.06951 28.878L0.88555 25.6479L0.913309 22.4178L0.894665 19.678L0.931539 16.4479L0.908337 13.2178L0.934853 10.478L0.904194 7.52953L0.803101 4.57695L1.08939 1.62437L2.31163 0.256126L5.12277 0.266023L7.93556 0.200456L10.7479 0.353445L13.5574 0.108497L16.3698 0.16994L19.183 0.202518L21.9966 0.190146L24.8144 0.328703L27.6326 0.184786L30.3853 0.380662L33.1969 0.133239L36.0092 0.158806L38.822 0.355095L41.6315 0.172002L44.4439 0.282105L47.2567 0.285404L50.0703 0.172002L52.8885 0.159219L55.7067 0.405404L58.4594 0.136126L61.2705 0.382311L64.0833 0.329115L66.8961 0.244992L69.7052 0.193858L72.5176 0.204167L75.3308 0.285816L78.1444 0.101074L80.9622 0.197569L83.7804 0.276332L86.5335 0.35427L89.3446 0.351796L92.157 0.224373L94.9698 0.218188L97.7789 0.168291L100.592 0.295713L103.404 0.226847L106.218 0.177363L109.036 0.237981L111.854 0.292827L113.167 1.62437L113.228 4.57241L113.212 7.52499L113.095 10.478L113.296 13.2178L113.173 16.4479L113.089 19.678L113.137 22.4178L113.198 25.6479L113.223 28.878L113.227 31.6178L113.284 34.8475L113.193 38.0776L111.854 39.407L109.043 39.3732L106.231 39.3736L103.418 39.3489L100.608 39.5588L97.7959 39.344L94.9831 39.5572L92.1695 39.3794L89.3513 39.426L86.5335 39.4755L83.7804 39.339L80.9692 39.4772L78.1564 39.5881L75.3441 39.3209L72.5346 39.5939L69.7222 39.3448L66.909 39.539L64.0958 39.5287L61.2776 39.32L58.4594 39.5225L55.7067 39.3275L52.8951 39.3184L50.0828 39.5209L47.27 39.3687L44.4605 39.3275L41.6481 39.5972L38.8353 39.5052L36.0217 39.3196L33.2035 39.5835L30.3853 39.4833L27.6326 39.3056L24.821 39.3357L22.0087 39.339L19.1963 39.5068L16.3868 39.5382L13.574 39.3782L10.7612 39.4409L7.94758 39.5679L5.1265 39.5778L2.31163 39.3204Z" fill="#E45618"/>
<path fill-rule="evenodd" clip-rule="evenodd" d="M101.513 13.259C98.4368 13.7505 98.4041 13.2767 95.2884 13.2767C92.1723 13.2767 92.1723 13.3901 89.0562 13.3901C85.9389 13.3901 85.9389 13.3893 82.822 13.3893C79.7055 13.3893 79.7055 13.3868 76.5895 13.3868C73.4709 13.3868 73.4709 13.3332 70.3523 13.3332C67.2342 13.3332 67.2342 13.3283 64.1156 13.3283C61.0004 13.3283 61.0004 13.3213 57.8851 13.3213C54.769 13.3213 54.769 13.3142 51.653 13.3142C48.5357 13.3142 48.5357 13.3542 45.4183 13.3542C42.3023 13.3542 42.3023 13.2252 39.1858 13.2252C36.0676 13.2252 36.0676 13.3204 32.9491 13.3204C29.8309 13.3204 29.8007 13.7336 26.7215 13.2421C26.2276 13.1633 26.6664 12.8017 26.6664 12.3039C26.6664 11.8062 26.2094 11.3299 26.7032 11.2507C29.7791 10.7592 29.8276 11.2371 32.9428 11.2371C36.0589 11.2371 36.0589 11.4161 39.1754 11.4161C42.2923 11.4161 42.2923 11.3155 45.4096 11.3155C48.5261 11.3155 48.5261 11.3357 51.6422 11.3357C54.7608 11.3357 54.7608 11.3439 57.8789 11.3439C60.9975 11.3439 60.9975 11.287 64.1156 11.287C67.2313 11.287 67.2313 11.1984 70.3465 11.1984C73.4626 11.1984 73.4626 11.3724 76.5787 11.3724C79.696 11.3724 79.696 11.2281 82.8133 11.2281C85.9294 11.2281 85.9294 11.2747 89.0459 11.2747C92.164 11.2747 92.164 11.3955 95.2826 11.3955C98.4007 11.3955 98.4521 10.7435 101.531 11.2351C102.025 11.3138 101.452 11.807 101.578 12.2887C101.718 12.8256 102.007 13.1802 101.513 13.259Z" fill="#4DBAFF"/>
<path fill-rule="evenodd" clip-rule="evenodd" d="M16.1635 32.3142C15.3738 32.3142 14.6533 32.2623 14.0036 32.1608C13.3515 32.0569 12.7255 31.8763 12.1259 31.6177C11.5235 31.3608 11.0172 31.026 10.605 30.6153C10.1923 30.2046 9.86377 29.6701 9.61725 29.0116C9.37322 28.3534 9.24976 27.5926 9.24976 26.7287C9.24976 26.3464 9.36369 26.1551 9.59115 26.1551H14.4565C14.6769 26.1551 14.8405 26.2083 14.947 26.3142C15.0539 26.4206 15.1177 26.5514 15.1393 26.7072C15.1608 26.8631 15.1795 27.019 15.1985 27.1744C15.2151 27.3303 15.2685 27.461 15.3572 27.5674C15.4463 27.6738 15.5871 27.727 15.7794 27.727C15.9571 27.727 16.1009 27.6796 16.2107 27.5827C16.3209 27.4887 16.3992 27.3443 16.4456 27.1534C16.4916 26.9621 16.5214 26.7959 16.531 26.654C16.5426 26.513 16.5475 26.332 16.5475 26.1126V26.0276C16.5405 25.5184 16.5214 24.534 16.4883 23.0759C16.4572 21.6177 16.4406 20.4775 16.4406 19.6565V13.3105C16.4406 13.1052 16.5902 12.9848 16.8889 12.9497C17.1164 12.9497 17.4578 12.953 17.9131 12.96C18.3685 12.967 18.7098 12.9707 18.9373 12.9707C19.2787 12.9707 19.7838 12.967 20.4525 12.96C21.1212 12.953 21.6262 12.9497 21.9676 12.9497H22.9703C23.1339 12.9497 23.2474 13.0487 23.3117 13.247C23.2976 13.3744 23.2914 13.5476 23.2951 13.767C23.2988 13.9868 23.2976 14.16 23.2905 14.2874V14.8186C23.2193 16.9918 23.1836 21.6672 23.1836 23.3728V26.7072C23.1836 27.3303 23.0983 27.9072 22.9276 28.4384C22.7569 28.9695 22.5294 29.4223 22.2448 29.7975C21.9602 30.1728 21.6213 30.5114 21.2252 30.8107C20.8316 31.113 20.4239 31.3551 20.0042 31.539C19.5845 31.7229 19.1412 31.8751 18.6767 31.9955C18.2094 32.1159 17.7723 32.1988 17.3629 32.2458C16.9544 32.2903 16.5546 32.3142 16.1635 32.3142Z" fill="#F8F7FF"/>
<path fill-rule="evenodd" clip-rule="evenodd" d="M24.4639 24.0313L24.4427 23.7979C24.5778 22.6441 24.7058 21.8404 24.8268 21.3872C25.1044 20.3253 25.602 19.4367 26.3204 18.722L26.5765 18.4668C26.9179 18.0705 27.437 17.7307 28.1339 17.4478H28.5395C29.2368 17.1575 30.3816 16.8882 31.975 16.6404C32.3732 16.6404 32.7908 16.6713 33.2292 16.7303C33.6654 16.7917 34.1514 16.8907 34.6847 17.0276C35.2183 17.167 35.7316 17.3864 36.2259 17.6857C36.7206 17.988 37.1316 18.3468 37.4589 18.7645V19.0618C38.6252 20.513 39.2086 22.141 39.2086 23.9464C39.2086 25.9781 38.7392 27.6346 37.8003 28.9163L37.3736 29.447C37.0463 29.8503 36.6386 30.1975 36.1526 30.4878C35.6641 30.7777 35.1474 30.9996 34.5997 31.1509C34.052 31.3043 33.5279 31.4115 33.0253 31.4754C32.5252 31.5389 32.0247 31.5707 31.5267 31.5707C30.7942 31.5707 30.0949 31.4845 29.4311 31.3113C28.7649 31.1377 28.1426 30.8664 27.563 30.4985C26.9829 30.1303 26.4733 29.6771 26.0325 29.1393C25.5912 28.6012 25.2333 27.9521 24.9594 27.1909C24.6855 26.4301 24.5211 25.5888 24.4639 24.6684V24.0313Z" fill="#F8F7FF"/>
<path fill-rule="evenodd" clip-rule="evenodd" d="M40.7449 17.1077H42.7295C43.3414 17.1077 44.3192 17.0936 45.6636 17.0652C47.0077 17.0371 48.0141 17.0227 48.6828 17.0227C49.2591 17.0227 49.7973 17.0549 50.2998 17.1184C50.7999 17.1823 51.2942 17.299 51.7814 17.4689C52.2687 17.6388 52.6851 17.8549 53.031 18.1167C53.3749 18.3786 53.6546 18.7241 53.8679 19.1514C54.0813 19.5811 54.1882 20.0738 54.1882 20.6334C54.1882 21.405 54.0067 22.0635 53.6438 22.6087C53.2813 23.1534 52.7228 23.6136 51.9687 23.9889C52.2674 24.1163 52.5272 24.2825 52.7476 24.4879C52.968 24.6936 53.1379 24.8701 53.2539 25.019C53.3724 25.1679 53.4851 25.4165 53.5953 25.7683C53.7055 26.1176 53.7718 26.3485 53.7934 26.4573C53.8145 26.5679 53.8609 26.8384 53.9322 27.2705C53.9533 27.3695 53.9678 27.4433 53.9748 27.4932C54.003 27.7765 54.124 28.2957 54.3374 29.0483C54.5507 29.8033 54.6576 30.3815 54.6576 30.7852C54.6576 31.04 54.5793 31.1674 54.4227 31.1674C53.996 31.1674 53.3513 31.1712 52.4858 31.1778C51.6228 31.1852 50.9802 31.1885 50.5605 31.1885C50.3898 31.1745 50.1337 31.1674 49.7923 31.1674H49.0668C48.9247 31.125 48.7859 30.9056 48.6509 30.5089C48.5158 30.1126 48.4197 29.6664 48.3629 29.1712L48.128 27.2808C48.0853 27.125 48.0509 27.014 48.0261 26.9456C48.0012 26.8796 47.9573 26.7971 47.8931 26.7027C47.8293 26.6058 47.7414 26.5411 47.6325 26.5056C47.521 26.4701 47.3814 26.4524 47.2103 26.4524H46.7197V30.7002C46.7197 30.7217 46.7197 30.7559 46.7197 30.8017C46.7197 30.8474 46.7197 30.8792 46.7197 30.8961C46.7197 30.9147 46.7197 30.9411 46.7197 30.9761C46.7197 31.0116 46.7164 31.0388 46.709 31.0565C46.7019 31.0743 46.6949 31.0965 46.6878 31.125C46.6808 31.1534 46.6725 31.172 46.6605 31.1839C46.651 31.1934 46.6356 31.2087 46.6178 31.2264C46.6 31.2441 46.5789 31.2561 46.5536 31.2627C46.5287 31.2701 46.5014 31.2771 46.4682 31.2841C46.4376 31.2916 46.3995 31.2949 46.3568 31.2949H40.7449V17.1077Z" fill="#F8F7FF"/>
<path fill-rule="evenodd" clip-rule="evenodd" d="M62.0246 16.9802C62.999 16.9802 63.8761 17.0441 64.6538 17.1716C65.434 17.299 66.1806 17.5254 66.8944 17.8512C67.6104 18.1769 68.2053 18.6017 68.6822 19.1254C69.1587 19.6495 69.5365 20.3291 69.8174 21.1641C70.0988 21.9996 70.2396 22.9695 70.2396 24.0742C70.2396 24.8813 70.1435 25.6338 69.9517 26.3299C69.7594 27.0285 69.4963 27.6277 69.162 28.1303C68.8276 28.633 68.4448 29.0813 68.0156 29.473C67.5843 29.8668 67.1173 30.1868 66.6123 30.4347C66.1072 30.6825 65.6022 30.8738 65.0971 31.0083C64.5921 31.1427 64.087 31.2239 63.5824 31.2524H56.2631V17.1505C56.2846 17.1505 56.3236 17.1538 56.3803 17.1608C56.4375 17.1679 56.4764 17.1716 56.498 17.1716C56.8037 17.1716 57.2674 17.1398 57.8897 17.0759C58.512 17.0124 58.9801 16.9802 59.2934 16.9802H62.0246Z" fill="#F8F7FF"/>
<path fill-rule="evenodd" clip-rule="evenodd" d="M76.1175 29.0862C76.0678 29.2487 76.0189 29.4635 75.9729 29.7279C75.9265 29.9947 75.8838 30.2033 75.8449 30.3555C75.8055 30.5076 75.7405 30.6672 75.6481 30.8322C75.5553 30.9996 75.4144 31.1213 75.2259 31.1992C75.0374 31.2771 74.7946 31.3159 74.4959 31.3159H69.8866V30.9551C70.2636 29.8297 70.8126 28.1019 71.5343 25.7732C72.2565 23.4437 72.8171 21.6813 73.2156 20.4846V20.506C73.4572 19.8194 73.8127 18.7431 74.2825 17.278C74.2895 17.2635 74.3003 17.2458 74.3144 17.2248C74.3786 17.1184 74.4387 17.0371 74.4959 16.9802L80.2569 17.0227C81.2385 17.0227 81.7791 17.1076 81.8786 17.278V17.5538C81.8931 17.6173 81.9714 17.7802 82.1135 18.0425C82.8033 20.1448 83.3084 21.6738 83.6282 22.6297V22.7571C83.6568 22.9625 83.721 23.1963 83.8205 23.4577C83.9199 23.72 84.0388 24.0021 84.1784 24.3027C84.316 24.6037 84.4146 24.8384 84.4714 25.0083L84.8981 26.5373C85.1471 27.3584 85.5134 28.4561 85.9969 29.8297V29.8083V30.0202C86.0184 30.1196 86.0719 30.254 86.1568 30.4239C86.2422 30.5938 86.2956 30.7142 86.3172 30.7852C86.3172 30.9831 86.2757 31.1105 86.1937 31.1674C86.1121 31.2239 85.9542 31.2524 85.7197 31.2524H80.769C80.6481 31.2384 80.5702 31.2276 80.5345 31.2206C80.4989 31.2132 80.4442 31.1992 80.3684 31.1778C80.2951 31.1567 80.2404 31.1283 80.2097 31.0932C80.1766 31.0578 80.1575 31.0116 80.1505 30.9551L79.7448 29.341C79.7163 29.2066 79.6881 29.1307 79.6595 29.1118C79.6309 29.0953 79.5456 29.0862 79.4035 29.0862H76.1175Z" fill="#F8F7FF"/>
<path fill-rule="evenodd" clip-rule="evenodd" d="M101.491 17.1077C101.576 17.1361 101.641 17.259 101.687 17.4738C101.733 17.6907 101.761 17.9609 101.768 18.2866C101.775 18.612 101.775 18.9237 101.768 19.2211C101.761 19.5184 101.751 19.8227 101.742 20.134C101.73 20.4458 101.726 20.6404 101.726 20.7184C101.711 21.0013 101.704 21.398 101.704 21.9077V23.033C101.704 23.5287 101.711 24.2087 101.726 25.0718C101.74 25.9357 101.747 26.5728 101.747 26.9835V30.8487C101.718 31.0895 101.519 31.2099 101.149 31.2099H95.1748C95.0464 31.1815 94.8827 30.8842 94.6838 30.318C94.5488 29.9427 94.3221 29.3266 94.0056 28.4701C93.6891 27.6136 93.4177 26.8606 93.1898 26.214C92.9624 25.5654 92.7564 24.9373 92.5712 24.3287C92.5501 24.7963 92.5286 25.492 92.5074 26.4149C92.4859 27.3398 92.4643 28.031 92.4432 28.4912V30.6573C92.4432 30.8701 92.4184 31.0173 92.3686 31.099C92.3185 31.1802 92.1872 31.245 91.9738 31.2949H87.5783L87.1089 30.8277C87.1441 29.6524 87.1727 27.8116 87.1942 25.3056C87.2154 22.7996 87.244 20.9452 87.2792 19.7415V17.4479C87.3504 17.193 87.4358 17.0652 87.5356 17.0652V17.1077C88.0191 17.1077 88.7778 17.0936 89.814 17.0652C90.8477 17.0371 91.6254 17.0227 92.1445 17.0227H93.9368C93.9439 17.0227 93.9546 17.0264 93.9687 17.0334C94.0968 17.0829 94.168 17.1398 94.1821 17.2033L94.1929 17.278C94.4489 17.9646 94.7087 18.6759 94.9718 19.412C95.2349 20.1485 95.5477 21.0392 95.9106 22.0821C96.2736 23.1279 96.5259 23.8474 96.668 24.2437V22.6722C96.8105 20.1802 96.8814 18.4103 96.8814 17.3629C96.8814 17.2495 96.9601 17.1786 97.1163 17.1505C97.2725 17.1221 97.5145 17.1077 97.8422 17.1077H101.491Z" fill="#F8F7FF"/>
</g>
<defs>
<clipPath id="clip0_265_1492">
<rect width="191" height="40" fill="white" transform="translate(0.399902)"/>
</clipPath>
</defs>
</svg>
