<svg id="Layer_1" data-name="Layer 1" xmlns="http://www.w3.org/2000/svg" viewBox="0 0 287.94 79.72"><defs><style>.cls-1{fill:none;}.cls-2{fill:#0e323b;}.cls-3{fill:#00b9ea;}</style></defs><title>KWR brand SVG</title><path class="cls-1" d="M37.43,1.56a.85.85,0,0,0,.8-.79l.5-8.38a.85.85,0,0,0-.8-.79H29.66l3.49-61H9.21a.86.86,0,0,0-.79.8l-.5,8.38a.86.86,0,0,0,.8.79H19.38L16.5-8.4H5.73a.85.85,0,0,0-.8.79L4.43.77a.85.85,0,0,0,.8.79Z"/><path class="cls-1" d="M79.61,7.55a.86.86,0,0,0,.79-.8l.6-10A.85.85,0,0,0,80.21-4h-2.4c-6.38,0-8.37-2.49-12-7.19l-6.38-8.36c-3.59-4.69-6-8.38-15.95-8.38H36.73a57.08,57.08,0,0,1,8.38,10L55.88-2.42c3.59,5.18,8.37,10,17.95,10Z"/><path class="cls-1" d="M41.71,143.53a.85.85,0,0,0,.8-.79l.5-8.38a.86.86,0,0,0-.79-.8H33.94l3.49-61H13.5a.85.85,0,0,0-.8.79l-.5,8.38a.86.86,0,0,0,.8.8H23.67l-2.89,51H10a.86.86,0,0,0-.8.8l-.5,8.38a.85.85,0,0,0,.8.79Z"/><path class="cls-1" d="M41,109.63H47.8c6.78,0,9.57-4.08,11.57-6.78L74.52,82.52H80a.86.86,0,0,0,.8-.79l.5-8.39a.85.85,0,0,0-.8-.79H54.67a.85.85,0,0,0-.79.79l-.5,8.39a.86.86,0,0,0,.8.79h6Z"/><path class="cls-1" d="M4.43,39.55a.85.85,0,0,0-.8-.8l-8.37-.5a.86.86,0,0,0-.8.8v8.27l-61-3.49V67.77a.85.85,0,0,0,.79.79l8.38.5a.86.86,0,0,0,.8-.8V57.6l51,2.88V71.25a.86.86,0,0,0,.8.8l8.37.5a.85.85,0,0,0,.8-.8Z"/><path class="cls-1" d="M10.41-2.63a.85.85,0,0,0-.79-.79L-.35-4a.84.84,0,0,0-.8.79v2.4c0,6.38-2.49,8.37-7.18,12l-8.37,6.38c-4.69,3.59-8.38,6-8.38,16v6.78a57.8,57.8,0,0,1,10-8.37L.44,21.1c5.19-3.59,10-8.37,10-18Z"/><path class="cls-1" d="M353.39,39.55a.85.85,0,0,0-.8-.8l-8.38-.5a.86.86,0,0,0-.79.8v8.27l-61-3.49V67.77a.86.86,0,0,0,.8.79l8.38.5a.86.86,0,0,0,.79-.8V57.6l51.05,2.88V71.25a.86.86,0,0,0,.79.8l8.38.5a.85.85,0,0,0,.8-.8Z"/><path class="cls-1" d="M319.49,40.24V33.46c0-6.77-4.09-9.56-6.78-11.56L292.38,6.75V1.26a.88.88,0,0,0-.8-.8L283.2,0a.85.85,0,0,0-.79.8V26.59a.86.86,0,0,0,.79.8l8.38.49a.86.86,0,0,0,.8-.8v-6Z"/><rect class="cls-1" x="-31.06" y="-33.93" width="348.96" height="141.97"/><path class="cls-2" d="M154.38,72.55h8.78c6.78,0,10.86-4.38,13.16-10l25.13-61h-27a.85.85,0,0,0-.79.8l-.5,8.38a.85.85,0,0,0,.8.79h10.26L164.55,60.19,151.1,11.53h6.37a.84.84,0,0,0,.8-.79l.5-8.38a.86.86,0,0,0-.8-.8H128.46a.87.87,0,0,0-.8.8l-.5,8.38a.86.86,0,0,0,.8.79h9.58l1.59,5.88-17.65,43L105.33,1.56H85.39a.86.86,0,0,0-.8.8l-.5,8.38a.85.85,0,0,0,.8.79h9.57l16.85,61h8.78c6.78,0,10.86-4.38,13.15-10l10.88-27Z"/><path class="cls-2" d="M239.33,72.55a.85.85,0,0,0,.8-.8l.5-8.38a.86.86,0,0,0-.8-.79h-8.28l2.9-51h10.06c8.38,0,16.75.4,16.75,8.78,0,10-6.38,11-14.15,12.26-4.69.79-7.78,3.69-8.18,9.27h7.58c17.55,0,29.12-6,29.12-22.33,0-14.75-13.57-18-28.32-18H211.12a.86.86,0,0,0-.8.8l-.5,8.38a.84.84,0,0,0,.8.79h10.67L218.4,62.58H207.63a.86.86,0,0,0-.8.79l-.5,8.38a.84.84,0,0,0,.8.8Z"/><path class="cls-2" d="M37.43,72.55a.85.85,0,0,0,.8-.8l.5-8.38a.86.86,0,0,0-.8-.79H29.66l3.49-61H9.21a.86.86,0,0,0-.79.8l-.5,8.38a.85.85,0,0,0,.8.79H19.38L16.5,62.58H5.73a.86.86,0,0,0-.8.79l-.5,8.38a.85.85,0,0,0,.8.8Z"/><path class="cls-2" d="M36.73,38.65h6.79c6.77,0,9.56-4.09,11.56-6.78L70.24,11.54h5.48a.88.88,0,0,0,.8-.8L77,2.36a.85.85,0,0,0-.8-.79H50.39a.86.86,0,0,0-.8.79l-.49,8.38a.87.87,0,0,0,.79.8h6Z"/><path class="cls-3" d="M79.61,78.53a.85.85,0,0,0,.79-.79l.6-10a.85.85,0,0,0-.79-.8h-2.4c-6.38,0-8.37-2.49-12-7.18l-6.38-8.37c-3.59-4.69-6-8.38-15.95-8.38H36.73a57.45,57.45,0,0,1,8.38,10L55.88,68.56c3.59,5.19,8.37,10,17.95,10Z"/><path class="cls-3" d="M281,78.53a.86.86,0,0,0,.8-.79l.59-10a.84.84,0,0,0-.79-.8h-2.8c-6.37,0-8.27-2.49-12-7.18L263.06,55c-3.49-4.39-6-8.38-15.95-8.38h-6.79a58.2,58.2,0,0,1,8.38,10l8.18,12c3.59,5.19,8.37,10,17.95,10Z"/><rect class="cls-1" x="-31.06" y="-33.93" width="348.96" height="141.97"/></svg>