<svg viewBox="0 0 104 104" fill="none" xmlns="http://www.w3.org/2000/svg"><path d="M40.813 59.21a1.953 1.953 0 00-1.614-.797 3.668 3.668 0 00-1.146.22c-.432.156-.918.33-1.34.523-.83.35-1.678.657-2.54.917-.84.242-1.712.36-2.586.348a5.906 5.906 0 01-4.128-1.32 6.63 6.63 0 01-1.834-4.265h13.968a1.835 1.835 0 001.468-.578c.38-.47.566-1.066.523-1.669a13.7 13.7 0 00-1.395-6.356 10.089 10.089 0 00-3.897-4.182 11.363 11.363 0 00-5.852-1.477 11.923 11.923 0 00-6.218 1.624 11.382 11.382 0 00-4.274 4.512 13.875 13.875 0 00-1.54 6.631 13.756 13.756 0 001.586 6.75 10.869 10.869 0 004.586 4.42 14.81 14.81 0 006.933 1.542 16.508 16.508 0 004.127-.578 18.286 18.286 0 003.027-1.027 22.2 22.2 0 003.604-1.908l-.917-2.421a2.623 2.623 0 00-.54-.908zM27.23 47.17a4.521 4.521 0 013.43-1.367 4.163 4.163 0 013.311 1.34 6.53 6.53 0 011.32 3.989h-9.62a6.521 6.521 0 011.56-3.962zm58.697-.395a10.72 10.72 0 00-3.824-4.586 9.951 9.951 0 00-5.595-1.623 9.723 9.723 0 00-4.585 1.073 7.585 7.585 0 00-3.128 2.971v-.403a3.412 3.412 0 00-1-2.568 3.669 3.669 0 00-2.687-.973 3.788 3.788 0 00-2.751.973 3.393 3.393 0 00-1.018 2.568v30.669h3.88a3.788 3.788 0 002.631-.917 3.045 3.045 0 001-2.394v-9.364a7.428 7.428 0 003.11 2.87 9.823 9.823 0 004.502 1.019 9.988 9.988 0 009.465-5.962 15.188 15.188 0 001.367-6.65 15.528 15.528 0 00-1.367-6.703zm-7.53 11.812a4.97 4.97 0 01-4.08 1.77 4.915 4.915 0 01-4.082-1.834 8.145 8.145 0 01-1.44-5.163 8.254 8.254 0 011.44-5.21 4.916 4.916 0 014.081-1.834 4.861 4.861 0 014.081 1.834 8.492 8.492 0 011.44 5.265 7.96 7.96 0 01-1.403 5.172h-.037zM56.01 30.614l-.513.055h-.065l-.412.055a10.867 10.867 0 00-4.825 1.835c-.5.339-.961.733-1.375 1.174a9.006 9.006 0 00-2.633 6.924h-4.585v5.695h4.586v16.05a3.266 3.266 0 001.063 2.642c.776.63 1.754.956 2.752.917h3.733V46.279h2.256c2.256 0 3.384-.917 3.384-2.751 0-1.835-1.128-2.782-3.384-2.843h-2.32V40.4a4.769 4.769 0 01.917-3.09 4.007 4.007 0 012.907-1.285h1.917v-5.43h-1.917a10.995 10.995 0 00-1.486.02z" fill="#030A8C"/><path d="M47.05 6.824a60.18 60.18 0 00-3.816.477l.431 2.751a49.418 49.418 0 013.577-.614l-.183-2.596-.01-.018zm-8.87 4.769a45.245 45.245 0 011.991-.569l-.743-3a47.575 47.575 0 00-3.668 1l1.027 3.046c.394-.138.862-.294 1.394-.477zm-4.768 1.834l-1.367-3.137a55.77 55.77 0 00-3.558 1.532l1.751 3.237c1.037-.55 2.1-1.1 3.174-1.632zm-6.182 3.604l-2.21-3.347a55.512 55.512 0 00-3.33 2.073l2.752 3.457a28.713 28.713 0 012.788-2.183zm-5.503 4.65l-3.301-3.54a54.524 54.524 0 00-3.018 2.587l3.962 3.585a35.57 35.57 0 012.357-2.632zm-4.484 5.42l-4.687-3.586a44.696 44.696 0 00-2.614 3.091l5.43 3.449c.596-.99 1.22-1.954 1.87-2.954zm-3.449 6.137L7.567 30a46.811 46.811 0 00-2.091 3.55l7.025 2.934c.422-1.192.835-2.256 1.293-3.246zm-3.018 9.996c.193-1.238.422-2.348.688-3.393l-7.777-2.568h-.083a47.708 47.708 0 00-.67 1.907c-.201.624-.458 1.404-.642 2.064l8.429 1.981.055.01zm-.486 6.879c0-1.147 0-2.302.102-3.43l-.45-.056-8.64-1.201A47.41 47.41 0 00.68 49.59v.046l8.823.458.789.019zm18.39 33.586l-.918-.697c-.238-.165-.477-.34-.706-.523l-.917-.716-2.577 2.944-2.522 3.055-3.375 4.09c1.119.917 2.292 1.834 3.476 2.623l3.21-4.586 2.036-2.944L28.68 83.7zm5.622 3.219a40.73 40.73 0 01-2.862-1.513l-2.008 3.503-1.624 2.825-2.962 5.063a59.023 59.023 0 003.861 2.008l2.587-5.503 1.256-2.696 1.715-3.669.037-.018zm2.952 1.284l-1.403 3.833-.917 2.587-2.201 5.879c1.348.504 2.751.963 4.136 1.366l1.688-6.209.678-2.495 1.064-3.907c-1.009-.311-2.063-.623-3.045-1.054zm6.21 1.88l-.725 3.971-.45 2.421-1.173 6.42c1.449.294 2.898.523 4.32.688l.632-6.603.23-2.394.376-3.925c-1.101-.193-2.165-.349-3.21-.578zM90.11 68.786l.275.11 7.337 3.045.128.055a54.275 54.275 0 001.303-4.146l-7.466-2.393a42.996 42.996 0 01-1.577 3.329zm2.824-6.815l7.145 1.624a48.02 48.02 0 00.55-4.274l-6.75-.917c-.266 1.155-.615 2.366-.945 3.567zm7.668-11.262l-5.907.183c0 1.247-.11 2.513-.247 3.76l6.337.34a37.33 37.33 0 00-.183-4.283zm-6.421-7.392a40.03 40.03 0 01.45 3.742l5.503-.633a44.666 44.666 0 00-.918-4.136l-4.521.917-.514.11zm-1.999-7.337a37.636 37.636 0 011.156 3.604l4.586-1.357a51.29 51.29 0 00-1.56-3.89l-2.971 1.156-1.21.487zm-3.329-6.833a47.085 47.085 0 011.834 3.33l3.843-1.89a51.475 51.475 0 00-2.155-3.55l-1.55.918-1.945 1.165-.027.027zm-2.146-3.173l3.182-2.302a47.994 47.994 0 00-2.678-3.119l-.733.633-2.156 1.834a68.422 68.422 0 012.385 2.954zm-5.072-5.65l2.614-2.67c-1.036-.916-2.082-1.834-3.118-2.622l-2.339 2.834a65.749 65.749 0 012.843 2.458zm-5.98-4.613l1.954-2.816a52.024 52.024 0 00-3.669-1.76l-1.559 2.705a37.895 37.895 0 013.274 1.871zm-6.658-3.458l1.201-2.586a52.69 52.69 0 00-3.778-1.174l-.918 2.513c1.165.367 2.367.788 3.495 1.247zm-7.108-2.201l.66-2.449a55.084 55.084 0 00-3.852-.605l-.44 2.421c1.21.156 2.43.34 3.632.633zm-10.941-3.44v2.504h3.668l.23-2.43c-.917 0-1.835-.074-2.752-.074h-1.146zM9.419 57.056l1.54-.183h.028l-.284-1.697-.202-1.697v-.018l-1.201.036-7.32.23-1.567.055H.385v2.155l.092 2.128v.027l.513-.064 8.429-.972zm1.165 6.942l2.155-.633a36.992 36.992 0 01-1.027-3.191l-1.908.33-7.814 1.578-1.092.229a50.47 50.47 0 00.808 4.237l1.724-.514 7.154-2.036zm2.375 6.65l2.595-1.275a49.078 49.078 0 01-1.531-2.935l-2.412.917-6.42 2.495-2.266.917c.486 1.477.99 2.806 1.541 4.072l2.816-1.385 5.677-2.806zm3.513 6.162l2.751-2.008a16.925 16.925 0 01-.917-1.284 61.004 61.004 0 01-.99-1.357l-2.752 1.65-4.989 3-3.164 1.907a55.724 55.724 0 002.384 3.669l3.394-2.458 4.283-3.118zm4.54 5.495l2.613-2.67a23.8 23.8 0 01-.843-.825l-.633-.642-.807-.853-2.752 2.358-3.668 3.154-3.467 2.99c.917 1.1 1.953 2.174 2.98 3.174l3.495-3.568 3.082-3.118zm32.522 12.546l-.275-3.751h-.505c-.917 0-1.834 0-2.815-.092V97.3l-.074 6.64c.807 0 1.532.046 2.229.046h2.155l-.486-6.65-.23-2.485zm7.181-.981l-.826-3.357a43.77 43.77 0 01-3.32.413l.569 3.586.404 2.55 1.027 6.529a56.369 56.369 0 004.365-.697l-1.568-6.374-.651-2.65zm6.943-2.192l-1.23-2.752a31.05 31.05 0 01-3.246.917l1.045 3.11.918 2.824 2.063 6.099c1.422-.412 2.853-.917 4.237-1.403l-2.522-5.778-1.265-3.017zm6.474-3.366l-1.403-2.137a42.28 42.28 0 01-3.109 1.476l1.358 2.495 1.733 3.192 2.751 5.154a43.627 43.627 0 003.77-2.385l-2.926-4.439-2.174-3.356zm5.825-4.457l-1.367-1.44c-.917.697-1.834 1.366-2.87 2.008l1.421 1.834 2.751 3.522 2.899 3.669c1.229-1.018 2.302-2 3.283-2.99l-2.751-2.926-3.366-3.677zm4.97-5.412l-1.064-.807a46.919 46.919 0 01-2.54 2.504l1.247 1.128 4.1 3.669 2.421 2.183c.972-1.147 1.835-2.33 2.706-3.495l-2.018-1.531-4.852-3.65zm3.935-6.218l-.56-.294c-.641 1.01-1.357 2-2.1 2.963l.862.54 5.632 3.578 1.458.917a48.935 48.935 0 002.027-3.898l-.844-.44-6.475-3.366z" fill="#0511F2"/><path d="M103.949 46.013l-3.861.44-5.503.633-1.834.22c.192 1.183.34 2.394.43 3.613h1.532l5.907-.183 3.357-.11V48.7c.045-.936.018-1.816-.028-2.687zm-10.611-6.411l-2.403.707a39.549 39.549 0 011.064 3.448l2.155-.44.523-.101 8.777-1.78a64.56 64.56 0 00-.918-4.521l-4.54 1.33-4.658 1.357zm-2.668-7.126l-2.752 1.348a42.954 42.954 0 011.641 3.165l2.605-1.01 1.238-.485 7.668-2.99a44.738 44.738 0 00-1.835-4.247l-4.732 2.33-3.834 1.89zm-3.963-6.503L83.89 28.01a39.986 39.986 0 012.146 2.815l2.807-1.697 1.944-1.164 6.21-3.752a48.22 48.22 0 00-2.624-3.796L89.89 23.67l-3.182 2.302zm-5.072-5.649l-2.65 2.705c.917.762 1.742 1.56 2.558 2.385l2.752-2.385 2.155-1.834 4.98-4.31a50.874 50.874 0 00-3.265-3.229l-3.907 3.999-2.623 2.669zm-2.889-2.449l2.339-2.834 3.55-4.292a56.841 56.841 0 00-3.752-2.586l-3.274 4.732-1.954 2.816-2.265 3.265a41.15 41.15 0 012.87 1.907l2.486-3.008zM72.39 13.83l1.56-2.705 2.98-5.2c-1.33-.679-2.751-1.312-4.109-1.89l-2.623 5.632-1.201 2.586-1.715 3.669c1.064.43 2.1.917 3.109 1.403l2-3.494zM64.255 1.348L62.55 7.603l-.66 2.449-1.055 3.852c1.1.257 2.192.55 3.256.917l1.394-3.788.917-2.513 2.183-5.97a39.08 39.08 0 00-4.329-1.202zM54.8 6.677l-.23 2.43-.367 3.834a44.45 44.45 0 013.33.349l.706-3.87.44-2.413 1.174-6.42a58.09 58.09 0 00-4.43-.44l-.623 6.53zm-7.732.147l.183 2.595.266 3.586a44.5 44.5 0 013.338-.156V8.437L50.947 0c-1.486 0-2.953.083-4.402.248l.523 6.576zm-3.834.476L42.216.88a79.294 79.294 0 00-4.301.918l1.531 6.246.743 2.999.798 3.054a42.855 42.855 0 013.265-.67l-.54-3.393-.478-2.733zm-7.511 1.743L33.705 3.1a54.188 54.188 0 00-4.09 1.623l2.448 5.595 1.367 3.109 1.201 2.751a39.646 39.646 0 013.119-1.174l-1-2.934-1.027-3.027zm-8.493 7.98l1.476 2.247a37.252 37.252 0 012.908-1.651l-1.376-2.522-1.752-3.238-2.806-5.163a50.334 50.334 0 00-3.76 2.274l3.1 4.705 2.21 3.348zm-5.457 4.604l1.55 1.641a44.56 44.56 0 012.614-2.11l-1.54-1.953-2.752-3.457-3.274-4.155c-1.147.917-2.257 1.834-3.32 2.88l3.42 3.668 3.302 3.486zm-4.521 5.456l1.357 1.018a44.837 44.837 0 012.256-2.522l-1.467-1.32-3.962-3.587-3.44-3.1a48.624 48.624 0 00-2.751 3.412l3.31 2.531 4.697 3.568zm-3.449 6.136l.917.477a39.723 39.723 0 011.826-2.844l-1.156-.733-5.43-3.449-3.164-2.008a43.265 43.265 0 00-2.1 3.843l2.88 1.504 6.227 3.21zM3.596 37.273h.082l7.814 2.504.294.1a42.076 42.076 0 011.33-3.173l-.624-.257-7.025-2.934-2.513-1.046a43 43 0 00-1.34 4.155l1.963.623.019.028zm-2.303 8.08l8.64 1.201a40.38 40.38 0 01.77-3.338L2.238 41.29l-1.56-.349a47.476 47.476 0 00-.522 4.302l1.137.165v-.055zM9.3 53.497c0-1.156.073-2.311.183-3.449l-8.85-.458v-.046H0c0 1.44.11 2.87.275 4.274h1.67l7.355-.321zm.119 3.558l-8.429.972a43.665 43.665 0 001.037 4.054l7.777-1.577c-.146-1.138-.293-2.284-.385-3.449zm1.165 6.944L3.458 66.08a49.375 49.375 0 001.724 3.742l6.42-2.495a45.045 45.045 0 01-1.018-3.33zm2.376 6.648L7.263 73.4a54.352 54.352 0 002.302 3.32l4.989-3c-.578-.971-1.082-2.008-1.596-3.072zm3.512 6.164l-4.292 3.118a54.81 54.81 0 002.751 2.843l3.669-3.154a39.574 39.574 0 01-2.128-2.807zm1.485 8.612c.997.82 2.034 1.6 3.11 2.339l2.494-3.054a37.796 37.796 0 01-2.577-2.403l-3.027 3.118zm6.439 4.467a54.002 54.002 0 003.366 1.834l1.623-2.825a46.398 46.398 0 01-2.953-1.944l-2.036 2.934zm6.924 3.42c1.166.477 2.349.918 3.56 1.303l.916-2.587c-1.11-.421-2.191-.917-3.246-1.412l-1.23 2.696zm7.943-.091l-.678 2.494c1.21.303 2.44.56 3.668.78l.45-2.422a85.503 85.503 0 01-3.44-.852zm6.823 3.787c1.239.138 2.495.23 3.76.275v-2.403c-1.192 0-2.375-.128-3.549-.266l-.21 2.394zm7.448-2.155l.174 2.449c1.275 0 2.54-.12 3.797-.239l-.404-2.55a45.199 45.199 0 01-3.567.34zm7.181-.981l.66 2.669a50.76 50.76 0 003.77-.78l-.917-2.825a43.036 43.036 0 01-3.513.936zm6.943-2.192l1.311 3.008a52.726 52.726 0 003.67-1.339l-1.734-3.191a42.078 42.078 0 01-3.247 1.522zm6.475-3.366l2.22 3.366a51.93 51.93 0 003.521-1.917l-2.751-3.522a47.005 47.005 0 01-2.99 2.073zm5.824-4.458l3.402 3.669a54.856 54.856 0 003.265-2.504l-4.1-3.668a51.043 51.043 0 01-2.567 2.503zm4.971-5.411l4.842 3.669a47.9 47.9 0 002.87-3.09l-5.63-3.578a38.671 38.671 0 01-2.082 3zm3.934-6.218l6.42 3.376a40.658 40.658 0 002.348-3.67l-7.337-3.044a26.884 26.884 0 01-1.43 3.338zm4.063-10.189l-.44-.101a33.738 33.738 0 01-.917 3.558h.082l7.466 2.394.596.183a55.396 55.396 0 001.678-4.127l-1.339-.311-7.126-1.596zm1.541-7.337l-1.202-.092c0 1.238-.091 2.449-.229 3.669l.826.11 6.741.898 2.082.294a47.81 47.81 0 00.862-4.448l-2.752-.156-6.328-.275z" fill="#0AC494"/></svg>