<svg height="52" width="160" version="1.1" xmlns="http://www.w3.org/2000/svg" xmlns:xlink="http://www.w3.org/1999/xlink" x="0px" y="0px" viewBox="0 0 76.5 24.6" style="enable-background:new 0 0 76.5 24.6;" xml:space="preserve">
<path fill="#de3c20" d="M16,3.4V0h-1.3c-0.7,0-1.3,0.6-1.3,1.3v4.9c0,0.1,0,0.3-0.1,0.4c0.2-0.5,0.6-1.1,1.2-1.7L16,3.4"/>
<path fill="#de3c20" d="M11.4,6.6c0-0.1-0.1-0.2-0.1-0.4V1.3C11.3,0.6,10.7,0,10,0H8.6v3.4L10.2,5C10.8,5.5,11.2,6.1,11.4,6.6"/>
<path fill="#de3c20" d="M11.1,9.3c0.4,0.1,0.8,0.1,1.3,0.1c0.4,0,0.9,0,1.3-0.1c-0.5-0.8-0.7-1.6-0.3-2.7c-0.2,0.4-0.5,0.6-0.9,0.6 s-0.8-0.3-0.9-0.6C11.8,7.6,11.6,8.5,11.1,9.3"/>
<path fill="#de3c20" d="M9.3,11.1c0.3-0.2,0.7-0.5,1-0.8s0.6-0.6,0.8-1C10.2,9.1,9.4,8.7,9,7.6C9.1,8,9,8.4,8.7,8.7S8,9.1,7.6,9 C8.6,9.4,9.1,10.2,9.3,11.1"/>
<path fill="#de3c20" d="M7.6,8.9c-0.1,0-0.2-0.1-0.3-0.2L3.8,5.3c-0.5-0.5-1.4-0.5-1.9,0l-1,1l2.4,2.4h2.2C6.4,8.6,7.1,8.7,7.6,8.9"/>
<path fill="#de3c20" d="M8.6,3.4C7.2,1.9,6.2,1,6.2,1l-1,1c-0.5,0.5-0.5,1.4,0,1.9l3.4,3.4c0.1,0.1,0.2,0.2,0.2,0.3 c-0.2-0.5-0.3-1.2-0.3-2C8.6,4.8,8.6,4,8.6,3.4"/>
<path fill="#8c1a10" d="M11.1,9.3c0.5-0.8,0.7-1.6,0.3-2.7c-0.2-0.5-0.6-1.1-1.2-1.7C9.6,4.4,9.1,3.8,8.6,3.4v2.2c0,0.8,0.1,1.5,0.3,2 C9.4,8.6,10.2,9.1,11.1,9.3"/>
<path fill="#de3c20" d="M9.3,13.6c0.1-0.4,0.1-0.8,0.1-1.3c0-0.4,0-0.9-0.1-1.3c-0.8,0.5-1.6,0.7-2.7,0.3c0.4,0.2,0.6,0.5,0.6,0.9 S6.9,13,6.6,13.1C7.6,12.8,8.5,13.1,9.3,13.6"/>
<path fill="#de3c20" d="M3.4,8.6H0V10c0,0.7,0.6,1.4,1.3,1.4h4.9c0.1,0,0.3,0,0.4,0.1c-0.5-0.2-1.1-0.6-1.7-1.2 C4.4,9.6,3.8,9.1,3.4,8.6"/>
<path fill="#de3c20" d="M6.6,13.3c-0.1,0-0.3,0.1-0.4,0.1H1.3C0.6,13.4,0,14,0,14.7V16h3.4L5,14.4C5.5,13.9,6.1,13.5,6.6,13.3"/>
<path fill="#8c1a10" d="M9.3,11.1C9.1,10.2,8.6,9.4,7.6,9c-0.5-0.2-1.2-0.3-2-0.3H3.4L5,10.3c0.6,0.6,1.1,1,1.7,1.2 C7.6,11.8,8.5,11.6,9.3,11.1"/>
<path fill="#de3c20" d="M8.9,17c0,0.1-0.1,0.2-0.2,0.3l-3.4,3.4c-0.5,0.5-0.5,1.4,0,1.9l1,1l2.4-2.4V19C8.6,18.2,8.7,17.6,8.9,17"/>
<path fill="#de3c20" d="M3.4,16L1,18.4l1,1c0.5,0.5,1.4,0.5,1.9,0L7.3,16c0.1-0.1,0.2-0.2,0.3-0.2c-0.5,0.2-1.2,0.3-2,0.3 C4.8,16,4,16,3.4,16"/>
<path fill="#de3c20" d="M11.1,15.4c-0.2-0.3-0.5-0.7-0.8-1s-0.6-0.6-1-0.8c-0.2,0.9-0.6,1.7-1.7,2.1c0.4-0.1,0.8-0.1,1.1,0.2 s0.4,0.8,0.2,1.1C9.4,16,10.2,15.6,11.1,15.4"/>
<path fill="#8c1a10" d="M9.3,13.6c-0.8-0.5-1.6-0.7-2.7-0.3c-0.5,0.2-1.1,0.6-1.7,1.2L3.4,16h2.2c0.8,0,1.5-0.1,2-0.3 C8.6,15.3,9.1,14.5,9.3,13.6"/>
<path fill="#de3c20" d="M13.3,18c0,0.1,0.1,0.3,0.1,0.4v4.9c0,0.7,0.6,1.3,1.3,1.3H16v-3.4l-1.6-1.6C13.9,19.1,13.5,18.6,13.3,18"/>
<path fill="#de3c20" d="M8.6,21.3v3.4H10c0.7,0,1.3-0.6,1.3-1.3v-4.9c0-0.1,0-0.3,0.1-0.4c-0.2,0.5-0.6,1.1-1.2,1.7 C9.6,20.3,9.1,20.8,8.6,21.3"/>
<path fill="#de3c20" d="M13.6,15.4c-0.4-0.1-0.8-0.1-1.3-0.1c-0.4,0-0.9,0-1.3,0.1c0.5,0.8,0.7,1.6,0.3,2.7c0.2-0.4,0.5-0.6,0.9-0.6 s0.8,0.3,0.9,0.6C12.8,17,13.1,16.1,13.6,15.4"/>
<path fill="#8c1a10" d="M11.1,15.4C10.2,15.6,9.4,16,8.9,17c-0.2,0.5-0.3,1.2-0.3,2v2.2l1.6-1.6c0.6-0.6,1-1.1,1.2-1.7 C11.8,17,11.6,16.1,11.1,15.4"/>
<path fill="#de3c20" d="M16,21.3l2.4,2.4l1-1c0.5-0.5,0.5-1.4,0-1.9L16,17.4c-0.1-0.1-0.2-0.2-0.2-0.3c0.2,0.5,0.3,1.2,0.3,2 C16,19.9,16,20.6,16,21.3"/>
<path fill="#de3c20" d="M15.4,13.6c-0.3,0.2-0.7,0.5-1,0.8s-0.6,0.6-0.8,1c0.9,0.2,1.7,0.6,2.1,1.7c-0.1-0.4-0.1-0.8,0.2-1.1 s0.7-0.4,1.1-0.2C16,15.3,15.6,14.5,15.4,13.6"/>
<path fill="#de3c20" d="M17,15.7c0.1,0,0.2,0.1,0.3,0.2l3.4,3.4c0.5,0.5,1.4,0.5,1.9,0l0.9-1l-2.4-2.4h-2.2C18.2,16,17.6,15.9,17,15.7"/>
<path fill="#8c1a10" d="M13.6,15.4c-0.5,0.8-0.7,1.6-0.3,2.7c0.2,0.5,0.6,1.1,1.2,1.7l1.6,1.6v-2.2c0-0.8-0.1-1.5-0.3-2 C15.3,16,14.5,15.6,13.6,15.4"/>
<path fill="#de3c20" d="M21.3,16h3.4v-1.3c0-0.7-0.6-1.3-1.3-1.3h-4.9c-0.1,0-0.3,0-0.4-0.1c0.5,0.2,1.1,0.6,1.7,1.2 C20.3,15,20.8,15.6,21.3,16"/>
<path fill="#de3c20" d="M18,11.4c-1,0.4-1.9,0.2-2.7-0.3c-0.1,0.4-0.1,0.8-0.1,1.3c0,0.4,0,0.9,0.1,1.3c0.8-0.5,1.6-0.7,2.7-0.3 c-0.4-0.2-0.6-0.5-0.6-0.9C17.4,11.9,17.7,11.5,18,11.4"/>
<path fill="#de3c20" d="M18,11.4c0.1,0,0.3-0.1,0.4-0.1h4.9c0.7,0,1.3-0.6,1.3-1.4V8.6h-3.4l-1.6,1.6C19.1,10.8,18.6,11.2,18,11.4"/>
<path fill="#8c1a10" d="M15.4,13.6c0.2,0.9,0.6,1.7,1.7,2.1c0.5,0.2,1.2,0.3,2,0.3h2.2l-1.6-1.6c-0.6-0.6-1.1-1-1.7-1.2 C17,12.8,16.1,13.1,15.4,13.6"/>
<path fill="#de3c20" d="M15.7,7.6c0-0.1,0.1-0.2,0.2-0.3l3.4-3.4c0.5-0.5,0.5-1.4,0-1.9l-1-1l-2.4,2.4v2.2C16,6.4,15.9,7.1,15.7,7.6"/>
<path fill="#de3c20" d="M21.3,8.6l2.4-2.4l-0.9-1c-0.5-0.5-1.4-0.5-1.9,0l-3.4,3.4c-0.1,0.1-0.2,0.2-0.3,0.2c0.5-0.2,1.2-0.3,2-0.3 C19.9,8.6,20.6,8.6,21.3,8.6"/>
<path fill="#de3c20" d="M13.6,9.3c0.2,0.3,0.5,0.7,0.8,1s0.6,0.6,1,0.8C15.6,10.2,16,9.4,17,9c-0.4,0.1-0.8,0.1-1.1-0.2 s-0.4-0.7-0.2-1.1C15.3,8.6,14.5,9.1,13.6,9.3"/>
<path fill="#8c1a10" d="M13.6,9.3c0.9-0.2,1.7-0.6,2.1-1.7c0.2-0.5,0.3-1.2,0.3-2V3.4L14.4,5c-0.6,0.6-1,1.1-1.2,1.7 C12.8,7.6,13.1,8.5,13.6,9.3"/>
<path fill="#8c1a10" d="M15.4,11.1c0.8,0.5,1.6,0.7,2.7,0.3c0.5-0.2,1.1-0.6,1.7-1.2l1.6-1.6h-2.2c-0.8,0-1.5,0.1-2,0.3 C16,9.4,15.6,10.2,15.4,11.1"/>
<path fill="#de3c20" d="M35.3,7.8c-0.8,0-1.4,0.6-1.4,1.4v5.2c0,0.6-0.5,1.1-1.1,1.1s-1.1-0.5-1.1-1.1V9.2c0-0.8-0.6-1.4-1.4-1.4h-1.4 v5.9c0,3.4,1.9,4,3.9,4s3.9-0.6,3.9-4V7.8L35.3,7.8"/>
<path fill="#de3c20" d="M73.6,10.3c1.6,0,3.3,0.6,2.8,1.7L76,12.8c-0.8-0.6-2.5-1-2.5-0.3c0,0.4,0.6,0.5,0.8,0.6 c1.1,0.3,2.3,0.6,2.3,2.1c0,1-0.6,2.5-3.1,2.5c-1.4,0-3.5-0.5-2.6-2c0.1-0.2,0.4-0.6,0.4-0.6s0.6,0.7,2,0.7c0.7,0,1-0.7,0.1-1 c-0.7-0.2-2.6-0.5-2.6-2.2C70.6,10.9,72.3,10.3,73.6,10.3"/>
<path fill="#de3c20" d="M51.8,7.5h-1.3V16c0,0.8,0.7,1.5,1.5,1.5h1.3V9C53.4,8.1,52.7,7.5,51.8,7.5"/>
<path fill="#de3c20" d="M47.6,10.4h-1.3V16c0,0.8,0.7,1.5,1.5,1.5h1.3V12C49.1,11.1,48.4,10.4,47.6,10.4"/>
<path fill="#de3c20" d="M46.3,8.3c0-0.8,0.6-1.4,1.4-1.4s1.4,0.6,1.4,1.4s-0.6,1.4-1.4,1.4C46.9,9.8,46.3,9.1,46.3,8.3"/>
<path fill="#de3c20" d="M60.4,10.9c-0.5-0.4-1.3-0.7-2.4-0.7c-2.1,0-2.8,0.7-3,0.9c-0.3,0.3-0.1,0.7,0,0.9l0.4,0.7c1.7-0.9,3-0.7,3-0.1 v0.3c-2.8,0-3.9,1.1-3.9,2.5c0,2.2,2,2.2,2.3,2.2c1.1,0,1.6-0.4,1.9-0.7c0,0.4,0.3,0.6,0.7,0.6h1.8V13 C61.1,12.1,60.9,11.4,60.4,10.9 M58.4,15.4c0,0.2-0.1,0.3-0.2,0.3c-0.1,0.1-0.3,0.1-0.5,0.1c-0.5,0-0.7-0.3-0.7-0.7 c0-0.8,0.8-1,1.3-1v1.3L58.4,15.4z"/>
<path fill="#de3c20" d="M69.7,14c0,1.8-0.6,3.7-2.8,3.7c-0.8,0-1.3-0.2-1.7-0.6c-0.1,0.3-0.4,0.5-0.7,0.5h-2V7.5h1.3 c0.8,0,1.5,0.7,1.5,1.5v1.7c0.4-0.3,0.9-0.4,1.5-0.4C69,10.3,69.7,12.1,69.7,14 M65.8,12.2c-0.1,0-0.3,0-0.4,0.1v3.1 c0.1,0.1,0.2,0.1,0.4,0.1c0.7,0,1-0.8,1-1.7C66.7,13,66.5,12.2,65.8,12.2z"/>
<path fill="#de3c20" d="M42.6,10.3c-0.7,0-1.4,0.3-1.8,0.9c-0.3-0.4-0.8-0.7-1.3-0.7h-1.3v7H41v-4.4c0-0.3,0.2-0.5,0.5-0.5 s0.5,0.2,0.5,0.5v3c0,0.8,0.7,1.5,1.5,1.5h1.3v-5C44.9,11.3,43.8,10.3,42.6,10.3"/>
</svg>
